<svg width="44" height="44" viewBox="0 0 44 44" fill="none" xmlns="http://www.w3.org/2000/svg">
<circle cx="22" cy="22" r="21.5" fill="white" stroke="#F1F1F5"/>
<path d="M24.7499 15.5833C24.6293 15.5826 24.5097 15.6058 24.398 15.6514C24.2863 15.697 24.1847 15.7642 24.0991 15.8492L18.5991 21.3492C18.4283 21.5209 18.3325 21.7533 18.3325 21.9954C18.3325 22.2376 18.4283 22.4699 18.5991 22.6417L24.0991 28.1417C24.2744 28.2918 24.5 28.3703 24.7307 28.3614C24.9614 28.3525 25.1803 28.2569 25.3435 28.0936C25.5068 27.9304 25.6024 27.7115 25.6113 27.4808C25.6202 27.2501 25.5418 27.0245 25.3916 26.8492L20.5424 22L25.3916 17.1508C25.5203 17.0232 25.6083 16.8602 25.6444 16.6825C25.6805 16.5049 25.6631 16.3205 25.5944 16.1527C25.5257 15.9849 25.4088 15.8413 25.2585 15.7399C25.1082 15.6386 24.9312 15.5841 24.7499 15.5833Z" fill="#06161C"/>
</svg>
